<?xml version="1.0" encoding="UTF-8"?>
<svg id="Camada_2" data-name="Camada 2" xmlns="http://www.w3.org/2000/svg" viewBox="0 0 488.54 133.88">
  <defs>
    <style>
      .cls-1 {
        fill: #606060;
      }
    </style>
  </defs>
  <g id="Camada_1-2" data-name="Camada 1">
    <g>
      <g>
        <path class="cls-1" d="M152.25,52.04V12.38h9.84l.48,5.16c1.22-2.01,2.78-3.53,4.68-4.56,1.9-1.03,4.02-1.55,6.35-1.55,3.23,0,5.94.69,8.13,2.06,2.19,1.38,3.79,3.49,4.8,6.35,1.16-2.7,2.8-4.77,4.92-6.23,2.11-1.45,4.57-2.18,7.38-2.18,4.65,0,8.2,1.47,10.63,4.4,2.43,2.94,3.65,7.45,3.65,13.53v22.69h-10.47v-20.31c0-2.7-.29-4.79-.87-6.27-.58-1.48-1.38-2.55-2.38-3.21-1.01-.66-2.2-.99-3.57-.99-2.54-.05-4.5.77-5.87,2.46-1.38,1.69-2.06,4.2-2.06,7.54v20.79h-10.47v-20.31c0-2.7-.28-4.79-.83-6.27-.56-1.48-1.35-2.55-2.38-3.21-1.03-.66-2.24-.99-3.61-.99-2.54-.05-4.48.77-5.83,2.46-1.35,1.69-2.02,4.2-2.02,7.54v20.79h-10.47Z"/>
        <path class="cls-1" d="M234.28,53c-4.76,0-8.45-1.06-11.07-3.17-2.62-2.11-3.93-5.1-3.93-8.97,0-4.23,1.41-7.42,4.24-9.56,2.83-2.14,6.81-3.21,11.94-3.21h10.08v7.77h-6.43c-3.44,0-5.82.41-7.14,1.23-1.32.82-1.98,1.97-1.98,3.45,0,1.16.53,2.08,1.59,2.74,1.06.66,2.54.99,4.44.99,1.75,0,3.29-.41,4.64-1.23,1.35-.82,2.42-1.88,3.21-3.17.79-1.29,1.19-2.63,1.19-4.01h2.54c0,5.4-1.02,9.6-3.05,12.61-2.04,3.02-5.46,4.52-10.27,4.52ZM245.39,52.04l-.32-8.01v-12.06c0-2.38-.25-4.42-.75-6.11-.5-1.69-1.3-3-2.38-3.93-1.08-.92-2.55-1.39-4.4-1.39-1.69,0-3.23.37-4.6,1.11-1.38.74-2.54,1.88-3.49,3.41l-9.2-3.17c.74-1.69,1.82-3.34,3.25-4.96,1.43-1.61,3.29-2.94,5.59-3.97,2.3-1.03,5.12-1.55,8.45-1.55,4.02,0,7.36.77,10.04,2.3,2.67,1.53,4.65,3.69,5.95,6.47,1.3,2.78,1.92,6.07,1.86,9.88l-.24,21.98h-9.76Z"/>
        <path class="cls-1" d="M279.5,50.93c-3.65,0-6.81-.79-9.48-2.38-2.67-1.59-4.75-3.81-6.23-6.66-1.48-2.86-2.22-6.24-2.22-10.16,0-4.13.74-7.71,2.22-10.75,1.48-3.04,3.56-5.39,6.23-7.06,2.67-1.67,5.83-2.5,9.48-2.5,3.17,0,5.92.83,8.25,2.5,2.33,1.67,4.13,4.03,5.4,7.1,1.27,3.07,1.9,6.72,1.9,10.95,0,3.81-.63,7.14-1.9,10s-3.07,5.06-5.4,6.62c-2.33,1.56-5.08,2.34-8.25,2.34ZM281.56,68.94c-3.01,0-5.69-.21-8.01-.63-2.33-.42-4.28-.98-5.87-1.67-1.59-.69-2.88-1.38-3.89-2.06l4.13-8.41c.74.42,1.72.91,2.94,1.47,1.22.56,2.67,1.03,4.36,1.43,1.69.4,3.65.6,5.87.6s3.98-.41,5.59-1.23c1.61-.82,2.88-2.09,3.81-3.81.92-1.72,1.39-3.9,1.39-6.55V12.38h10.47v35.38c0,4.44-.85,8.26-2.54,11.46-1.69,3.2-4.09,5.62-7.18,7.26-3.09,1.64-6.78,2.46-11.07,2.46ZM282.52,42.13c1.8,0,3.37-.46,4.72-1.39,1.35-.92,2.39-2.19,3.13-3.81.74-1.61,1.11-3.45,1.11-5.51s-.38-3.97-1.15-5.55c-.77-1.59-1.82-2.83-3.17-3.73-1.35-.9-2.92-1.35-4.72-1.35s-3.49.45-4.92,1.35c-1.43.9-2.54,2.14-3.33,3.73-.79,1.59-1.22,3.44-1.27,5.55.05,2.06.48,3.9,1.27,5.51.79,1.61,1.92,2.88,3.37,3.81,1.45.93,3.11,1.39,4.96,1.39Z"/>
        <path class="cls-1" d="M311.39,52.04V12.38h9.84l.63,7.3v32.37h-10.47ZM337.66,31.73c0-2.7-.31-4.79-.91-6.27-.61-1.48-1.47-2.55-2.58-3.21-1.11-.66-2.41-.99-3.89-.99-2.7-.05-4.77.77-6.23,2.46-1.46,1.69-2.18,4.2-2.18,7.54h-3.49c0-4.23.62-7.81,1.86-10.75,1.24-2.94,2.99-5.18,5.24-6.74,2.25-1.56,4.88-2.34,7.89-2.34s5.79.63,8.01,1.9c2.22,1.27,3.91,3.24,5.08,5.91,1.16,2.67,1.72,6.12,1.67,10.35v2.14h-10.47ZM337.66,52.04v-20.31h10.47v20.31h-10.47Z"/>
        <path class="cls-1" d="M374.39,53c-3.92,0-7.38-.89-10.39-2.66s-5.38-4.22-7.1-7.34c-1.72-3.12-2.58-6.72-2.58-10.79s.89-7.67,2.66-10.79c1.77-3.12,4.21-5.57,7.3-7.34,3.09-1.77,6.65-2.66,10.67-2.66,3.49,0,6.7.91,9.64,2.74s5.29,4.5,7.06,8.01c1.77,3.52,2.66,7.79,2.66,12.81h-30.07l.95-.95c0,1.96.49,3.66,1.47,5.12.98,1.46,2.25,2.57,3.81,3.33,1.56.77,3.24,1.15,5.04,1.15,2.17,0,3.94-.46,5.32-1.39,1.38-.92,2.43-2.13,3.17-3.61l9.36,3.65c-1.11,2.22-2.55,4.14-4.32,5.75-1.77,1.61-3.88,2.84-6.31,3.69-2.43.85-5.21,1.27-8.33,1.27ZM365.74,28.16l-.95-.95h19.12l-.87.95c0-1.9-.45-3.42-1.35-4.56-.9-1.14-2-1.97-3.29-2.5-1.3-.53-2.55-.79-3.77-.79s-2.51.27-3.89.79c-1.38.53-2.55,1.36-3.53,2.5-.98,1.14-1.47,2.66-1.47,4.56Z"/>
        <path class="cls-1" d="M397,21.26v-8.89h26.82v8.89h-26.82ZM416.75,53c-4.39,0-7.71-1.08-9.96-3.25-2.25-2.17-3.37-5.26-3.37-9.28V0h10.47v38.16c0,1.69.37,2.98,1.11,3.85.74.87,1.82,1.31,3.25,1.31.53,0,1.11-.12,1.75-.36.63-.24,1.3-.59,1.98-1.07l3.65,7.85c-1.27.95-2.69,1.73-4.24,2.34-1.56.61-3.11.91-4.64.91Z"/>
      </g>
      <g>
        <path class="cls-1" d="M172.95,128.17c-3.97,0-7.48-.89-10.55-2.66-3.07-1.77-5.46-4.22-7.18-7.34-1.72-3.12-2.58-6.72-2.58-10.79s.86-7.67,2.58-10.79c1.72-3.12,4.1-5.57,7.14-7.34,3.04-1.77,6.52-2.66,10.43-2.66s7.34.9,10.43,2.7c3.09,1.8,5.41,4.36,6.94,7.7l-6.82,2.86c-1.01-1.96-2.45-3.49-4.32-4.6-1.88-1.11-4.03-1.67-6.47-1.67s-4.5.58-6.35,1.75c-1.85,1.16-3.31,2.79-4.36,4.88-1.06,2.09-1.59,4.48-1.59,7.18s.53,5.08,1.59,7.14c1.06,2.06,2.54,3.69,4.44,4.88,1.9,1.19,4.05,1.79,6.43,1.79s4.6-.62,6.51-1.86c1.9-1.24,3.33-2.92,4.28-5.04l6.9,2.78c-1.53,3.49-3.85,6.22-6.94,8.17-3.09,1.96-6.6,2.94-10.51,2.94Z"/>
        <path class="cls-1" d="M196.91,107.86v-20.31h7.54v20.31h-7.54ZM204.44,107.86c0,3.54.41,6.27,1.23,8.17.82,1.9,1.97,3.23,3.45,3.97,1.48.74,3.15,1.14,5,1.19,3.23,0,5.74-1.14,7.54-3.41,1.8-2.27,2.7-5.47,2.7-9.6h3.25c0,4.18-.62,7.76-1.86,10.75-1.24,2.99-3,5.28-5.28,6.86-2.27,1.59-5.05,2.38-8.33,2.38-3.07,0-5.75-.63-8.05-1.9-2.3-1.27-4.07-3.25-5.32-5.95-1.24-2.7-1.86-6.19-1.86-10.47v-1.98h7.54ZM224.83,127.22l-.48-7.3v-32.37h7.46v39.67h-6.98Z"/>
        <path class="cls-1" d="M256.56,128.17c-2.8,0-5.3-.42-7.5-1.27-2.2-.85-4.05-1.98-5.55-3.41-1.51-1.43-2.63-3.04-3.37-4.84l6.51-2.86c.85,1.64,2.12,2.99,3.81,4.05,1.69,1.06,3.57,1.59,5.63,1.59,2.27,0,4.15-.42,5.63-1.27,1.48-.85,2.22-2.04,2.22-3.57s-.56-2.64-1.67-3.49c-1.11-.85-2.72-1.53-4.84-2.06l-3.73-.95c-3.7-1-6.57-2.51-8.61-4.52-2.04-2.01-3.05-4.28-3.05-6.82,0-3.86,1.24-6.85,3.73-8.96,2.49-2.11,6.16-3.17,11.03-3.17,2.38,0,4.56.34,6.54,1.03,1.98.69,3.68,1.67,5.08,2.94,1.4,1.27,2.39,2.78,2.98,4.52l-6.35,2.86c-.63-1.59-1.72-2.76-3.25-3.53-1.53-.77-3.33-1.15-5.4-1.15s-3.78.46-5,1.39c-1.22.93-1.82,2.21-1.82,3.85,0,.9.52,1.76,1.55,2.58,1.03.82,2.55,1.5,4.56,2.02l4.28,1.03c2.59.63,4.73,1.6,6.43,2.9,1.69,1.3,2.96,2.75,3.81,4.36.85,1.61,1.27,3.29,1.27,5.04,0,2.38-.65,4.46-1.94,6.23-1.3,1.77-3.07,3.13-5.32,4.09-2.25.95-4.8,1.43-7.66,1.43Z"/>
        <path class="cls-1" d="M275.45,94.05v-6.51h25.55v6.51h-25.55ZM294.64,128.17c-3.97,0-7.03-1.02-9.2-3.05-2.17-2.04-3.25-4.96-3.25-8.77v-41.17h7.54v40.06c0,1.96.49,3.45,1.47,4.48.98,1.03,2.39,1.55,4.24,1.55.53,0,1.11-.11,1.75-.32.63-.21,1.4-.63,2.3-1.27l2.86,5.87c-1.38.9-2.69,1.56-3.93,1.98-1.24.42-2.5.63-3.77.63Z"/>
        <path class="cls-1" d="M327.41,128.17c-3.97,0-7.46-.89-10.47-2.66-3.02-1.77-5.38-4.22-7.1-7.34-1.72-3.12-2.58-6.72-2.58-10.79s.85-7.67,2.54-10.79c1.69-3.12,4.05-5.57,7.06-7.34,3.01-1.77,6.48-2.66,10.39-2.66s7.38.89,10.39,2.66c3.01,1.77,5.37,4.22,7.06,7.34,1.69,3.12,2.54,6.72,2.54,10.79s-.85,7.67-2.54,10.79c-1.69,3.12-4.03,5.57-7.02,7.34-2.99,1.77-6.41,2.66-10.27,2.66ZM327.41,121.27c2.38,0,4.49-.6,6.35-1.79,1.85-1.19,3.29-2.82,4.32-4.88,1.03-2.06,1.55-4.47,1.55-7.22s-.52-5.16-1.55-7.22c-1.03-2.06-2.5-3.69-4.4-4.88-1.9-1.19-4.05-1.79-6.43-1.79s-4.58.6-6.43,1.79c-1.85,1.19-3.31,2.82-4.36,4.88-1.06,2.06-1.59,4.47-1.59,7.22s.53,5.16,1.59,7.22c1.06,2.06,2.54,3.69,4.44,4.88,1.9,1.19,4.07,1.79,6.51,1.79Z"/>
        <path class="cls-1" d="M355.49,127.22v-39.67h7.06l.32,5.47c1.27-2.12,2.86-3.72,4.76-4.8,1.9-1.08,4.1-1.63,6.58-1.63,3.17,0,5.87.73,8.09,2.18,2.22,1.46,3.83,3.66,4.84,6.62,1.16-2.86,2.8-5.04,4.92-6.55,2.11-1.51,4.63-2.26,7.54-2.26,4.49,0,8.01,1.47,10.55,4.4,2.54,2.94,3.78,7.45,3.73,13.53v22.69h-7.46v-20.31c0-3.6-.38-6.33-1.15-8.21-.77-1.88-1.79-3.19-3.05-3.93-1.27-.74-2.75-1.14-4.44-1.19-2.96,0-5.25,1.14-6.86,3.41-1.61,2.27-2.42,5.47-2.42,9.6v20.63h-7.54v-20.31c0-3.6-.37-6.33-1.11-8.21-.74-1.88-1.76-3.19-3.05-3.93-1.3-.74-2.79-1.14-4.48-1.19-2.96,0-5.25,1.14-6.86,3.41-1.61,2.27-2.42,5.47-2.42,9.6v20.63h-7.54Z"/>
        <path class="cls-1" d="M441.02,128.17c-3.86,0-7.27-.89-10.23-2.66-2.96-1.77-5.29-4.22-6.98-7.34-1.69-3.12-2.54-6.72-2.54-10.79s.85-7.67,2.54-10.79c1.69-3.12,4.03-5.57,7.02-7.34,2.99-1.77,6.41-2.66,10.27-2.66,3.65,0,6.85.91,9.6,2.74,2.75,1.82,4.91,4.42,6.47,7.77,1.56,3.36,2.34,7.31,2.34,11.86h-32.05l1.43-1.19c0,2.8.56,5.24,1.67,7.3,1.11,2.06,2.62,3.64,4.52,4.72,1.9,1.08,4.07,1.63,6.51,1.63,2.64,0,4.85-.62,6.62-1.86,1.77-1.24,3.16-2.82,4.17-4.72l6.51,3.01c-1.06,2.06-2.43,3.88-4.13,5.43-1.69,1.56-3.69,2.76-5.99,3.61-2.3.85-4.88,1.27-7.74,1.27ZM429.35,104.21l-1.51-1.19h25.07l-1.43,1.19c0-2.33-.48-4.32-1.43-5.99s-2.22-2.94-3.81-3.81-3.36-1.31-5.32-1.31-3.74.44-5.51,1.31c-1.77.87-3.23,2.13-4.36,3.77-1.14,1.64-1.71,3.65-1.71,6.03Z"/>
        <path class="cls-1" d="M466.96,127.22v-39.67h7.54v39.67h-7.54ZM471.56,105.88c0-4.28.82-7.77,2.46-10.47,1.64-2.7,3.75-4.71,6.35-6.03,2.59-1.32,5.32-1.98,8.17-1.98v7.14c-2.38,0-4.64.36-6.78,1.07s-3.89,1.88-5.24,3.49c-1.35,1.61-2.02,3.8-2.02,6.55l-2.94.24Z"/>
      </g>
      <g>
        <path class="cls-1" d="M17.3,37.95c7.04-6.88,18.88-1.89,18.88,7.95v42.03l51-49.87c7.04-6.88,18.88-1.89,18.88,7.95v41.92l23.41-22.89V19.41c0-8.29-6.72-15.01-15.01-15.01H15.01C6.72,4.4,0,11.12,0,19.41v35.45l17.3-16.92Z"/>
        <path class="cls-1" d="M112.01,100.23c-7.04,6.88-18.88,1.89-18.88-7.95v-41.92l-51,49.87c-7.04,6.88-18.88,1.89-18.88-7.95v-42.03L0,72.97v45.9c0,8.29,6.72,15.01,15.01,15.01h99.47c8.29,0,15.01-6.72,15.01-15.01v-35.74l-17.48,17.09Z"/>
      </g>
    </g>
  </g>
</svg>